<?xml version="1.0" encoding="UTF-8" standalone="no"?>
<!-- Created with Inkscape (http://www.inkscape.org/) -->

<svg
   width="84.739014mm"
   height="16.1464mm"
   viewBox="0 0 84.739014 16.1464"
   version="1.1"
   id="svg1"
   inkscape:version="1.3.2 (091e20ef0f, 2023-11-25)"
   sodipodi:docname="logo.svg"
   xmlns:inkscape="http://www.inkscape.org/namespaces/inkscape"
   xmlns:sodipodi="http://sodipodi.sourceforge.net/DTD/sodipodi-0.dtd"
   xmlns="http://www.w3.org/2000/svg"
   xmlns:svg="http://www.w3.org/2000/svg">
  <sodipodi:namedview
     id="namedview1"
     pagecolor="#ffffff"
     bordercolor="#666666"
     borderopacity="1.0"
     inkscape:showpageshadow="2"
     inkscape:pageopacity="0.0"
     inkscape:pagecheckerboard="0"
     inkscape:deskcolor="#d1d1d1"
     inkscape:document-units="mm"
     inkscape:zoom="1.9028572"
     inkscape:cx="197.07207"
     inkscape:cy="51.238737"
     inkscape:window-width="1920"
     inkscape:window-height="1008"
     inkscape:window-x="0"
     inkscape:window-y="0"
     inkscape:window-maximized="1"
     inkscape:current-layer="layer1" />
  <defs
     id="defs1">
    <rect
       x="268.16498"
       y="307.24429"
       width="253.34178"
       height="53.902508"
       id="rect2" />
    <rect
       x="13.475626"
       y="247.95152"
       width="563.28119"
       height="204.82951"
       id="rect1" />
    <rect
       x="13.475626"
       y="247.95152"
       width="563.28119"
       height="204.82951"
       id="rect1-6" />
    <rect
       x="13.475626"
       y="247.95152"
       width="563.28119"
       height="204.82951"
       id="rect1-4" />
    <rect
       x="13.475626"
       y="247.95152"
       width="563.28119"
       height="204.82951"
       id="rect1-4-3" />
    <rect
       x="13.475626"
       y="247.95152"
       width="563.28119"
       height="204.82951"
       id="rect1-4-2" />
  </defs>
  <g
     inkscape:label="Layer 1"
     inkscape:groupmode="layer"
     id="layer1"
     transform="translate(-75.706955,-122.76239)">
    <path
       id="path3"
       style="font-size:74.6667px;line-height:0.95;white-space:pre;shape-inside:url(#rect1-6);display:inline;fill:#c90000;fill-opacity:1"
       d="m 85.697095,94.381319 c 0.131706,0.487305 0.197404,1.017838 0.197404,1.939759 v 0.47594 h 3.437516 v -2.415699 z m 37.693825,0.237195 v 2.058098 h 3.31866 v -2.058098 z m -42.830463,3.140894 c -1.554093,-3e-6 -2.331124,0.842708 -2.331124,2.528532 v 4.3465 c 0,1.67265 0.247864,2.50889 1.801957,2.50889 h 1.107943 v -2.14095 c -4.4e-5,-0.005 -0.0016,-0.008 -0.0016,-0.0124 v -5.077206 c 0,-0.447785 0.197623,-0.671793 0.592728,-0.671793 h 3.042192 c 0.124388,0 0.222238,0.03002 0.307475,0.07441 v -1.023193 c -0.06096,-0.111587 -0.117432,-0.198322 -0.168982,-0.256316 -0.171215,-0.184381 -0.414616,-0.276467 -0.730705,-0.276468 z m 23.904483,0 c -1.40924,0 -2.11408,0.849716 -2.11408,2.548682 v 1.12603 c 0,1.79118 0.98807,2.68666 2.96364,2.68666 0.38194,0 0.9285,-0.0328 1.6397,-0.0987 0.71114,-0.079 1.19204,-0.11885 1.44228,-0.11885 0.77705,0 1.16531,0.23745 1.16531,0.71158 0,0.40829 -0.0199,0.67161 -0.0594,0.79014 -0.0922,0.2239 -0.31568,0.33589 -0.67128,0.33589 h -4.18837 c -1.05363,0 -1.80426,-0.0727 -2.25206,-0.21756 l 0.25683,1.62006 h 7.90236 c 1.58044,0 2.3704,-0.69786 2.3704,-2.09393 v -2.23242 c 0,-1.43558 -0.98111,-2.15336 -2.94349,-2.15336 -0.3556,0 -0.87577,0.0264 -1.56063,0.0791 -0.68486,0.0527 -1.15226,0.0791 -1.4025,0.0791 -0.86925,0 -1.30431,-0.224 -1.30431,-0.67179 0,-0.368767 0.0199,-0.599241 0.0594,-0.691431 0.0659,-0.197555 0.25052,-0.296623 0.55345,-0.296623 h 4.34599 c 1.05363,0 1.80427,0.07268 2.25206,0.217558 l -0.25683,-1.620056 z m 15.2275,0 c -0.51782,-10e-7 -0.73357,0.09967 -1.00235,0.293005 v 1.648478 c 0.0888,-0.03826 0.19195,-0.06459 0.3266,-0.06459 h 1.12998 c 0.89559,0 1.14991,0.0657 1.8216,0.197404 v -2.074292 z m 3.44165,0 c 0.13176,0.500467 0.1974,1.205328 0.1974,2.114082 v 5.15576 c 0,0.92193 -0.0657,1.62677 -0.1974,2.11408 h 3.83232 c -0.13175,-0.48731 -0.1974,-1.19215 -0.1974,-2.11408 v -7.269842 z m 6.85487,0 c -1.40917,0 -2.11356,0.849716 -2.11356,2.548682 v 1.12603 c 0,1.79118 0.98757,2.68666 2.96313,2.68666 0.38194,0 0.92849,-0.0328 1.63969,-0.0987 0.7112,-0.079 1.19205,-0.11885 1.44229,-0.11885 0.77705,0 1.16582,0.23745 1.16582,0.71158 0,0.40829 -0.0199,0.67161 -0.0594,0.79014 -0.0922,0.2239 -0.31619,0.33589 -0.67179,0.33589 h -4.18838 c -1.05363,0 -1.80427,-0.0727 -2.25206,-0.21756 l 0.25683,1.62006 h 7.90236 c 1.58045,0 2.3704,-0.69786 2.3704,-2.09393 v -2.23242 c 0,-1.43558 -0.9811,-2.15336 -2.94349,-2.15336 -0.3556,0 -0.87577,0.0264 -1.56063,0.0791 -0.6848,0.0527 -1.15226,0.0791 -1.40249,0.0791 -0.86925,0 -1.3038,-0.224 -1.3038,-0.67179 0,-0.368767 0.0194,-0.599241 0.0589,-0.691431 0.0659,-0.197555 0.25054,-0.296623 0.55346,-0.296623 h 4.34598 c 1.05363,0 1.80427,0.07268 2.25206,0.217558 l -0.25631,-1.620056 z m 11.95225,0 c -1.5541,0 -2.33113,0.84271 -2.33113,2.528532 v 4.3465 c 0,1.67265 0.77703,2.50889 2.33113,2.50889 h 8.49509 l 0.27646,-1.5999 c -0.79016,0.15807 -1.74493,0.23668 -2.86442,0.23668 -0.47413,0 -1.18545,-0.0194 -2.13372,-0.0589 -0.93509,-0.0395 -1.6265,-0.0594 -2.07429,-0.0594 -0.39511,0 -0.59273,-0.224 -0.59273,-0.6718 v -1.67948 h 7.66516 v -3.02255 c 0,-1.685822 -0.77701,-2.528532 -2.33112,-2.528532 z m 9.87795,0 c 0.13175,0.500467 0.1974,1.205328 0.1974,2.114082 v 5.15576 c 0,0.92193 -0.0657,1.62677 -0.1974,2.11408 h 3.83232 c -0.13176,-0.48731 -0.1974,-1.19215 -0.1974,-2.11408 v -4.89893 c 0,-0.32924 0.19762,-0.494024 0.59273,-0.494024 h 1.30379 c 0.77897,0 0.92782,0.05904 1.53737,0.158646 v -2.035534 h -1.9916 c -0.97461,0 -1.50822,0.342473 -1.60042,1.027327 h -0.0393 l -0.13849,-1.027327 z m 8.41086,0 v 0.01137 h -0.0868 v 2.120801 c 3e-4,0.01205 0.004,0.02016 0.004,0.03256 v 5.077211 c 0,0.44779 -0.19767,0.6718 -0.59272,0.6718 h -3.0422 c -0.0931,0 -0.17328,-0.0144 -0.24443,-0.0393 v 1.08366 c 0.036,0.0574 0.0736,0.12435 0.10594,0.16071 0.17122,0.18439 0.41514,0.27647 0.73122,0.27647 h 3.61942 c 1.55404,0 2.33112,-0.84273 2.33112,-2.52853 v -4.3465 c 0,-1.672647 -0.77708,-2.508898 -2.33112,-2.508898 h -0.49403 v -0.01137 z m -74.533442,0.01137 c 0.131704,0.487297 0.197404,1.192172 0.197404,2.114083 v 4.899439 c 0,0.32925 -0.197618,0.49351 -0.592729,0.49351 h -1.303796 c -0.78002,0 -0.92981,-0.0593 -1.539957,-0.15916 v 2.03605 h 1.994709 c 0.974601,0 1.507711,-0.34248 1.599903,-1.02733 h 0.03979 l 0.137976,1.02733 h 3.29954 c -0.131703,-0.50047 -0.197921,-1.20482 -0.197921,-2.11357 v -5.156269 c 0,-0.921911 0.06622,-1.626786 0.197921,-2.114083 z m 4.900476,0 -0.276986,1.600419 c 0.790222,-0.158044 1.745468,-0.237194 2.864942,-0.237194 0.474127,0 1.184942,0.01993 2.133203,0.05943 0.935089,0.0395 1.626499,0.05891 2.074292,0.05891 0.395104,0 0.592729,0.223999 0.592729,0.671793 v 1.679484 h -7.665166 v 3.02255 c 0,1.6858 0.777033,2.52853 2.331124,2.52853 h 6.440434 c 1.554114,0 2.331124,-0.84273 2.331124,-2.52853 v -4.3465 c 0,-1.672643 -0.77701,-2.508891 -2.331124,-2.508891 z m 23.469366,0 c 0.1317,0.487297 0.19741,1.192172 0.19741,2.114083 v 7.269839 h 3.63492 c -0.1317,-0.50047 -0.19741,-1.20482 -0.19741,-2.11357 v -5.156269 c 0,-0.921911 0.0657,-1.626786 0.19741,-2.114083 z m 29.57391,1.470195 h 3.04219 c 0.39511,0 0.59273,0.224004 0.59273,0.671793 v 1.916164 h -4.22765 v -1.916164 c 0,-0.447789 0.19762,-0.671793 0.59273,-0.671793 z m -49.882745,3.844207 h 4.227649 v 1.91616 c 0,0.44779 -0.197625,0.6718 -0.592729,0.6718 h -3.042192 c -0.395105,0 -0.592728,-0.22401 -0.592728,-0.6718 z m 25.306985,1.99523 v 2.07429 h 2.27634 c 0.51547,0 0.72967,-0.0988 0.99821,-0.29042 v -1.649 c -0.0881,0.0371 -0.19032,0.0625 -0.32298,0.0625 h -1.12998 c -0.89558,0 -1.1499,-0.0657 -1.82159,-0.1974 z m 32.88843,3.15709 v 2.29529 h 3.63492 c -0.1317,-0.4873 -0.1974,-0.48867 -0.1974,-1.41059 v -0.8847 z m -37.62975,0 v 2.05861 h 3.31918 v -2.05861 z"
       inkscape:export-filename="path3.svg"
       inkscape:export-xdpi="96"
       inkscape:export-ydpi="96"
       sodipodi:nodetypes="cscccccccccssssccsssscccsssssscsscssccssssssscssccssccssccscssccsccsssscsscssccssssssscssccsssssccscssccssscssccssssccsccccccccsssscccsssssccccssssccsccccssccccscssccssssssccsccssccsssccssccsssscccsccssccccscccccccc" />
    <path
       id="path3-5"
       style="font-size:74.6667px;line-height:0.95;white-space:pre;shape-inside:url(#rect1-6);display:inline;fill:#fc2200;fill-opacity:1"
       d="m 83.174717,122.76239 c 0.131706,0.48731 0.197404,1.01784 0.197404,1.93976 v 0.47594 h 3.437516 v -2.4157 z m 37.693833,0.2372 v 2.05809 h 3.31866 v -2.05809 z m -42.830471,3.14089 c -1.554093,0 -2.331124,0.84271 -2.331124,2.52853 v 4.3465 c 0,1.67265 0.247864,2.50889 1.801957,2.50889 h 1.107943 v -2.14095 c -4.4e-5,-0.005 -0.0016,-0.008 -0.0016,-0.0124 v -5.0772 c 0,-0.44779 0.197623,-0.6718 0.592728,-0.6718 h 3.042192 c 0.124388,0 0.222238,0.03 0.307475,0.0744 v -1.02319 c -0.06096,-0.11159 -0.117432,-0.19832 -0.168982,-0.25632 -0.171215,-0.18438 -0.414616,-0.27646 -0.730705,-0.27646 z m 23.904481,0 c -1.40924,0 -2.114078,0.84972 -2.114078,2.54868 v 1.12603 c 0,1.79118 0.988068,2.68666 2.963648,2.68666 0.38194,0 0.9285,-0.0328 1.6397,-0.0987 0.71114,-0.079 1.19204,-0.11885 1.44228,-0.11885 0.77705,0 1.16531,0.23745 1.16531,0.71158 0,0.40829 -0.0199,0.67161 -0.0594,0.79014 -0.0922,0.2239 -0.31568,0.33589 -0.67128,0.33589 h -4.18838 c -1.05363,0 -1.80426,-0.0727 -2.252058,-0.21756 l 0.256828,1.62006 h 7.90237 c 1.58044,0 2.3704,-0.69786 2.3704,-2.09393 v -2.23242 c 0,-1.43558 -0.98111,-2.15336 -2.94349,-2.15336 -0.3556,0 -0.87577,0.0264 -1.56063,0.0791 -0.68486,0.0527 -1.15226,0.0791 -1.4025,0.0791 -0.86925,0 -1.30431,-0.224 -1.30431,-0.67179 0,-0.36876 0.0199,-0.59924 0.0594,-0.69143 0.0659,-0.19755 0.25052,-0.29662 0.55345,-0.29662 h 4.34599 c 1.05363,0 1.80427,0.0727 2.25206,0.21756 l -0.25683,-1.62006 z m 15.22751,0 c -0.51782,0 -0.73357,0.0997 -1.00235,0.29301 v 1.64847 c 0.0888,-0.0383 0.19195,-0.0646 0.3266,-0.0646 h 1.12998 c 0.89559,0 1.14991,0.0657 1.8216,0.19741 v -2.07429 z m 3.44165,0 c 0.13176,0.50047 0.1974,1.20533 0.1974,2.11408 v 5.15576 c 0,0.92193 -0.0657,1.62677 -0.1974,2.11408 h 3.83232 c -0.13175,-0.48731 -0.19741,-1.19215 -0.19741,-2.11408 v -7.26984 z m 6.85487,0 c -1.40917,0 -2.11356,0.84972 -2.11356,2.54868 v 1.12603 c 0,1.79118 0.98757,2.68666 2.96312,2.68666 0.38195,0 0.9285,-0.0328 1.63969,-0.0987 0.71121,-0.079 1.19205,-0.11885 1.4423,-0.11885 0.77705,0 1.16582,0.23745 1.16582,0.71158 0,0.40829 -0.0199,0.67161 -0.0594,0.79014 -0.0922,0.2239 -0.31619,0.33589 -0.67178,0.33589 h -4.18838 c -1.05363,0 -1.80427,-0.0727 -2.25206,-0.21756 l 0.25683,1.62006 h 7.90236 c 1.58045,0 2.3704,-0.69786 2.3704,-2.09393 v -2.23242 c 0,-1.43558 -0.9811,-2.15336 -2.94349,-2.15336 -0.35561,0 -0.87577,0.0264 -1.56064,0.0791 -0.68479,0.0527 -1.15225,0.0791 -1.40249,0.0791 -0.86924,0 -1.30379,-0.224 -1.30379,-0.67179 0,-0.36876 0.0194,-0.59924 0.0589,-0.69143 0.0659,-0.19755 0.25054,-0.29662 0.55346,-0.29662 h 4.34598 c 1.05363,0 1.80427,0.0727 2.25206,0.21756 l -0.25631,-1.62006 z m 11.95224,0 c -1.5541,0 -2.33113,0.84271 -2.33113,2.52853 v 4.3465 c 0,1.67265 0.77703,2.50889 2.33113,2.50889 h 8.49509 l 0.27646,-1.5999 c -0.79016,0.15807 -1.74493,0.23668 -2.86442,0.23668 -0.47413,0 -1.18545,-0.0194 -2.13372,-0.0589 -0.93509,-0.0395 -1.6265,-0.0594 -2.07429,-0.0594 -0.39511,0 -0.59273,-0.224 -0.59273,-0.6718 v -1.67948 h 7.66516 v -3.02255 c 0,-1.68582 -0.77701,-2.52853 -2.33112,-2.52853 z m 9.87795,0 c 0.13175,0.50047 0.1974,1.20533 0.1974,2.11408 v 5.15576 c 0,0.92193 -0.0657,1.62677 -0.1974,2.11408 h 3.83232 c -0.13176,-0.48731 -0.19739,-1.19215 -0.19739,-2.11408 v -4.89893 c 0,-0.32924 0.19762,-0.49402 0.59272,-0.49402 h 1.30379 c 0.77897,0 0.92782,0.059 1.53738,0.15865 v -2.03554 h -1.99161 c -0.97461,0 -1.50821,0.34247 -1.60042,1.02733 h -0.0393 l -0.13849,-1.02733 z m -66.12258,0.0114 c 0.131704,0.4873 0.197404,1.19217 0.197404,2.11408 v 4.89944 c 0,0.32925 -0.197618,0.49351 -0.592729,0.49351 h -1.303796 c -0.78002,0 -0.92981,-0.0593 -1.539957,-0.15916 v 2.03605 h 1.994709 c 0.974601,0 1.507711,-0.34248 1.599903,-1.02733 h 0.03979 l 0.137976,1.02733 h 3.29954 c -0.131703,-0.50047 -0.197921,-1.20482 -0.197921,-2.11357 v -5.15627 c 0,-0.92191 0.06622,-1.62678 0.197921,-2.11408 z m 4.900476,0 -0.276986,1.60042 c 0.790222,-0.15804 1.745468,-0.23719 2.864942,-0.23719 0.474127,0 1.184942,0.0199 2.133203,0.0594 0.935089,0.0395 1.626499,0.0589 2.074292,0.0589 0.395104,0 0.592729,0.224 0.592729,0.67179 v 1.67948 H 87.79769 v 3.02255 c 0,1.6858 0.777033,2.52853 2.331124,2.52853 h 6.440434 c 1.554114,0 2.331124,-0.84273 2.331124,-2.52853 v -4.3465 c 0,-1.67264 -0.77701,-2.50889 -2.331124,-2.50889 z m 23.469374,0 c 0.1317,0.4873 0.19741,1.19217 0.19741,2.11408 v 7.26984 h 3.63492 c -0.1317,-0.50047 -0.19741,-1.20482 -0.19741,-2.11357 v -5.15627 c 0,-0.92191 0.0657,-1.62678 0.19741,-2.11408 z m 29.57391,1.4702 h 3.04219 c 0.39511,0 0.59273,0.224 0.59273,0.67179 V 130.21 h -4.22766 v -1.91616 c 0,-0.44779 0.19762,-0.67179 0.59274,-0.67179 z m -49.882753,3.8442 h 4.227649 v 1.91616 c 0,0.44779 -0.197625,0.6718 -0.592729,0.6718 h -3.042192 c -0.395105,0 -0.592728,-0.22401 -0.592728,-0.6718 z"
       inkscape:export-filename="path3.svg"
       inkscape:export-xdpi="96"
       inkscape:export-ydpi="96"
       sodipodi:nodetypes="cscccccccccssssccsssscccsssssscsscssccssssssscssccssccssccscssccsccsssscsscssccssssssscssccsssssccscssccssscssccssssccscccccssssccsccccssccccscssccssssssccsccsscccssccssccsssscc" />
    <text
       xml:space="preserve"
       transform="matrix(0.26458333,0,0,0.26458333,30.861429,-49.353376)"
       id="text1-8-6"
       style="font-size:74.6667px;line-height:0.95;font-family:sans-serif;white-space:pre;shape-inside:url(#rect1-4-2);display:inline"><tspan
         x="13.476562"
         y="305.2869"
         id="tspan3"><tspan
           style="font-family:BoostSSK;-inkscape-font-specification:BoostSSK"
           id="tspan2">dasriser</tspan></tspan></text>
    <text
       xml:space="preserve"
       transform="scale(0.26458333)"
       id="text2"
       style="font-size:40px;line-height:0.95;font-family:sans-serif;white-space:pre;shape-inside:url(#rect2);display:inline" />
    <path
       d="m 122.1279,129.49179 v 0.28361 h 4.23747 v -0.28361 z"
       style="fill:#00ff00;fill-opacity:1;stroke:none;stroke-width:0.179269;stroke-linecap:round;stroke-linejoin:round"
       id="path4-7-8-9" />
    <path
       d="m 157.62042,126.13538 v 0.0114 h -0.0868 v 2.1208 c 3.1e-4,0.0121 0.004,0.0202 0.004,0.0326 v 5.07721 c 0,0.44779 -0.19767,0.6718 -0.59272,0.6718 h -3.0422 c -0.0931,0 -0.17328,-0.0144 -0.24443,-0.0393 v 1.08366 c 0.036,0.0574 0.0736,0.12435 0.10594,0.16071 0.17122,0.18439 0.41514,0.27647 0.73122,0.27647 h 3.61942 c 1.55404,0 2.33112,-0.84273 2.33112,-2.52853 v -4.3465 c 0,-1.67264 -0.77708,-2.5089 -2.33112,-2.5089 h -0.49403 v -0.0114 z m -41.16545,7.32103 v 2.07429 h 2.27634 c 0.51547,0 0.72967,-0.0988 0.99821,-0.29042 v -1.649 c -0.0881,0.0371 -0.19032,0.0625 -0.32298,0.0625 h -1.12998 c -0.89558,0 -1.1499,-0.0657 -1.82159,-0.1974 z m 32.88843,3.15709 v 2.29529 h 3.63492 c -0.1317,-0.4873 -0.1974,-0.48867 -0.1974,-1.41059 v -0.8847 z m -37.62975,0 v 2.05861 h 3.31918 v -2.05861 z"
       style="font-size:74.6667px;line-height:0.95;white-space:pre;shape-inside:url(#rect1-6);display:inline;fill:#872200;fill-opacity:0.40625"
       id="path1" />
    <path
       id="path3-5-2"
       style="font-size:74.6667px;line-height:0.95;white-space:pre;shape-inside:url(#rect1-6);display:inline;fill:#fc2200;fill-opacity:1"
       d="m 152.84584,158.2597 c -0.13171,-0.48731 -0.1974,-1.01784 -0.1974,-1.93976 v -0.47595 h -3.43752 v 2.4157 z m -37.69382,-0.2372 v -2.05809 h -3.31866 v 2.05809 z m 42.83046,-3.1409 c 1.55409,0 2.33112,-0.84271 2.33112,-2.52852 v -4.3465 c 0,-1.67265 -0.24786,-2.50889 -1.80195,-2.50889 h -1.10795 v 2.14095 c 5e-5,0.005 0.002,0.008 0.002,0.0124 v 5.0772 c 0,0.44779 -0.19762,0.6718 -0.59273,0.6718 h -3.04219 c -0.12439,0 -0.22224,-0.03 -0.30747,-0.0744 v 1.02319 c 0.061,0.11159 0.11743,0.19832 0.16898,0.25632 0.17121,0.18438 0.41462,0.27645 0.7307,0.27645 z m -23.90448,0 c 1.40925,0 2.11408,-0.84971 2.11408,-2.54867 v -1.12603 c 0,-1.79118 -0.98807,-2.68666 -2.96365,-2.68666 -0.38193,0 -0.9285,0.0328 -1.6397,0.0987 -0.71114,0.079 -1.19204,0.11885 -1.44228,0.11885 -0.77705,0 -1.16531,-0.23745 -1.16531,-0.71158 0,-0.40829 0.0199,-0.67161 0.0594,-0.79014 0.0922,-0.2239 0.31568,-0.33589 0.67128,-0.33589 h 4.18838 c 1.05363,0 1.80426,0.0727 2.25205,0.21756 l -0.25682,-1.62006 h -7.90237 c -1.58044,0 -2.3704,0.69786 -2.3704,2.09393 v 2.23242 c 0,1.43558 0.98111,2.15336 2.94349,2.15336 0.3556,0 0.87577,-0.0264 1.56063,-0.0791 0.68486,-0.0527 1.15226,-0.0791 1.4025,-0.0791 0.86925,0 1.30431,0.224 1.30431,0.67179 0,0.36876 -0.0199,0.59924 -0.0594,0.69143 -0.0659,0.19755 -0.25052,0.29662 -0.55345,0.29662 h -4.34599 c -1.05363,0 -1.80427,-0.0727 -2.25206,-0.21756 l 0.25683,1.62006 z m -15.22751,0 c 0.51782,0 0.73357,-0.0997 1.00236,-0.29301 v -1.64847 c -0.0888,0.0383 -0.19195,0.0646 -0.32661,0.0646 h -1.12997 c -0.89559,0 -1.14992,-0.0657 -1.8216,-0.1974 v 2.07428 z m -3.44164,0 c -0.13177,-0.50047 -0.1974,-1.20533 -0.1974,-2.11408 v -5.15575 c 0,-0.92193 0.0657,-1.62677 0.1974,-2.11408 h -3.83233 c 0.13176,0.48731 0.19741,1.19215 0.19741,2.11408 v 7.26983 z m -6.85488,0 c 1.40917,0 2.11357,-0.84971 2.11357,-2.54867 v -1.12603 c 0,-1.79118 -0.98758,-2.68666 -2.96313,-2.68666 -0.38194,0 -0.9285,0.0328 -1.63969,0.0987 -0.7112,0.079 -1.19204,0.11885 -1.44229,0.11885 -0.77705,0 -1.16582,-0.23745 -1.16582,-0.71158 0,-0.40829 0.0199,-0.67161 0.0594,-0.79014 0.0922,-0.2239 0.31619,-0.33589 0.67178,-0.33589 h 4.18838 c 1.05363,0 1.80427,0.0727 2.25206,0.21756 l -0.25683,-1.62006 h -7.90236 c -1.58045,0 -2.3704,0.69786 -2.3704,2.09393 v 2.23242 c 0,1.43558 0.9811,2.15336 2.94349,2.15336 0.35561,0 0.87577,-0.0264 1.56064,-0.0791 0.68479,-0.0527 1.15225,-0.0791 1.40249,-0.0791 0.86924,0 1.30379,0.224 1.30379,0.67179 0,0.36876 -0.0194,0.59924 -0.0589,0.69143 -0.0659,0.19755 -0.25054,0.29662 -0.55346,0.29662 h -4.34598 c -1.05363,0 -1.80427,-0.0727 -2.25206,-0.21756 l 0.25631,1.62006 z m -11.952227,0 c 1.5541,0 2.33113,-0.84271 2.33113,-2.52852 v -4.3465 c 0,-1.67265 -0.77703,-2.50889 -2.33113,-2.50889 h -8.49509 l -0.27646,1.59989 c 0.79016,-0.15807 1.74493,-0.23668 2.86442,-0.23668 0.47413,0 1.18545,0.0194 2.13372,0.0589 0.93509,0.0395 1.6265,0.0594 2.07429,0.0594 0.39511,0 0.59273,0.224 0.59273,0.6718 v 1.67948 h -7.66517 v 3.02255 c 0,1.68582 0.77701,2.52853 2.33112,2.52853 z m -9.87795,0 c -0.13176,-0.50047 -0.1974,-1.20533 -0.1974,-2.11408 v -5.15575 c 0,-0.92193 0.0657,-1.62677 0.1974,-2.11408 h -3.83233 c 0.13177,0.48731 0.1974,1.19215 0.1974,2.11408 v 4.89893 c 0,0.32924 -0.19762,0.49402 -0.59273,0.49402 h -1.30378 c -0.77897,0 -0.92782,-0.059 -1.53739,-0.15865 v 2.03554 h 1.99161 c 0.97462,0 1.50821,-0.34247 1.60043,-1.02733 h 0.0393 l 0.13849,1.02733 z m 66.122567,-0.0114 c -0.13171,-0.4873 -0.19741,-1.19217 -0.19741,-2.11408 v -4.89944 c 0,-0.32925 0.19762,-0.49351 0.59273,-0.49351 h 1.3038 c 0.78002,0 0.92981,0.0593 1.53996,0.15917 v -2.03605 h -1.99471 c -0.9746,0 -1.50771,0.34248 -1.59991,1.02733 h -0.0398 l -0.13797,-1.02733 h -3.29954 c 0.1317,0.50047 0.19792,1.20482 0.19792,2.11357 v 5.15627 c 0,0.92191 -0.0662,1.62678 -0.19792,2.11408 z m -4.90048,0 0.27699,-1.60042 c -0.79022,0.15804 -1.74547,0.23719 -2.86494,0.23719 -0.47413,0 -1.18494,-0.0199 -2.1332,-0.0594 -0.93509,-0.0395 -1.6265,-0.0589 -2.07429,-0.0589 -0.3951,0 -0.59273,-0.224 -0.59273,-0.67179 v -1.67948 h 7.66516 v -3.02255 c 0,-1.6858 -0.77704,-2.52853 -2.33113,-2.52853 h -6.44042 c -1.55411,0 -2.33112,0.84273 -2.33112,2.52853 v 4.3465 c 0,1.67264 0.77701,2.50889 2.33112,2.50889 z m -23.46936,0 c -0.1317,-0.4873 -0.19741,-1.19217 -0.19741,-2.11408 v -7.26984 h -3.63492 c 0.1317,0.50048 0.19741,1.20483 0.19741,2.11358 v 5.15627 c 0,0.92191 -0.0657,1.62678 -0.19741,2.11408 z M 94.902613,153.4 h -3.04219 c -0.39511,0 -0.59273,-0.224 -0.59273,-0.67179 v -1.91613 h 4.22766 v 1.91616 c 0,0.44779 -0.19762,0.67179 -0.59274,0.67179 z m 49.882737,-3.8442 h -4.22765 v -1.91616 c 0,-0.44779 0.19763,-0.6718 0.59273,-0.6718 h 3.04219 c 0.39511,0 0.59273,0.22401 0.59273,0.6718 z"
       inkscape:export-filename="path3.svg"
       inkscape:export-xdpi="96"
       inkscape:export-ydpi="96"
       sodipodi:nodetypes="cscccccccccssssccsssscccsssssscsscssccssssssscssccssccssccscssccsccsssscsscssccssssssscssccsssssccscssccssscssccssssccscccccssssccsccccssccccscssccssssssccsccsscccssccssccsssscc" />
    <path
       d="m 113.89267,151.5303 v -0.28361 h -4.23747 v 0.28361 z"
       style="fill:#00ff00;fill-opacity:1;stroke:none;stroke-width:0.179269;stroke-linecap:round;stroke-linejoin:round"
       id="path4-7-8-9-7" />
    <path
       d="m 78.400153,154.8867 v -0.0114 h 0.0868 v -2.1208 c -3.1e-4,-0.0121 -0.004,-0.0202 -0.004,-0.0326 v -5.07721 c 0,-0.44779 0.19767,-0.6718 0.59272,-0.6718 h 3.0422 c 0.0931,0 0.17328,0.0144 0.24443,0.0393 v -1.08366 c -0.036,-0.0574 -0.0736,-0.12435 -0.10594,-0.16071 -0.17122,-0.18439 -0.41514,-0.27647 -0.73122,-0.27647 h -3.61942 c -1.55404,0 -2.33112,0.84273 -2.33112,2.52853 v 4.3465 c 0,1.67264 0.77708,2.5089 2.33112,2.5089 h 0.49403 v 0.0114 z m 41.165447,-7.32103 v -2.07429 h -2.27635 c -0.51546,0 -0.72967,0.0988 -0.99821,0.29043 v 1.649 c 0.0881,-0.0371 0.19033,-0.0625 0.32298,-0.0625 h 1.12998 c 0.89558,0 1.1499,0.0657 1.82159,0.19739 z m -32.888427,-3.15709 v -2.29529 h -3.63492 c 0.1317,0.4873 0.1974,0.48867 0.1974,1.41059 v 0.88471 z m 37.629747,0 v -2.05861 h -3.31918 v 2.05861 z"
       style="font-size:74.6667px;line-height:0.95;white-space:pre;shape-inside:url(#rect1-6);display:inline;fill:#872200;fill-opacity:0.40625"
       id="path1-0" />
  </g>
</svg>
